<svg xmlns="http://www.w3.org/2000/svg" version="1.1" xmlns:xlink="http://www.w3.org/1999/xlink" xmlns:svgjs="http://svgjs.dev/svgjs" width="128" height="128" viewBox="0 0 128 128"><g transform="matrix(0.8046875,0,0,0.8046875,12.506335372881338,29.16801151329797)"><svg viewBox="0 0 59 40" data-background-color="#102e44" preserveAspectRatio="xMidYMid meet" height="86" width="128" xmlns="http://www.w3.org/2000/svg" xmlns:xlink="http://www.w3.org/1999/xlink"><g id="tight-bounds" transform="matrix(1,0,0,1,-0.0036289999999894462,0.13318819732607778)"><svg viewBox="0 0 59.00725799999999 39.73362360534784" height="39.73362360534784" width="59.00725799999999"><g><svg viewBox="0 0 59.00725799999999 39.73362360534784" height="39.73362360534784" width="59.00725799999999"><g><svg viewBox="0 0 59.00725799999999 39.73362360534784" height="39.73362360534784" width="59.00725799999999"><g><svg viewBox="0 0 59.00725799999999 39.73362360534784" height="39.73362360534784" width="59.00725799999999"><g id="textblocktransform"><svg viewBox="0 0 59.00725799999999 39.73362360534784" height="39.73362360534784" width="59.00725799999999" id="textblock"><g><svg viewBox="0 0 59.00725799999999 39.73362360534784" height="39.73362360534784" width="59.00725799999999"><g><svg viewBox="0 0 59.00725799999999 39.73362360534784" height="39.73362360534784" width="59.00725799999999"><g><svg xmlns="http://www.w3.org/2000/svg" xmlns:xlink="http://www.w3.org/1999/xlink" version="1.1" x="0" y="0" viewBox="5 19.699 89.99976674900338 60.60300000000001" enable-background="new 0 0 100 100" xml:space="preserve" height="39.73362360534784" width="59.00725799999999" class="icon-icon-0" data-fill-palette-color="accent" id="icon-0"><g fill="#b2fcfb" data-fill-palette-color="accent"><path d="M28.038 44.495v35.807h14.943V55.364c-4.05-0.883-6.704-6.144-13.906-10.345C28.736 44.821 28.389 44.649 28.038 44.495z" fill="#000000" data-fill-palette-color="accent"></path><path d="M7.905 80.302h14.943V43.556c-5.295 0.136-11 2.997-14.943 5.447V80.302z" fill="#000000" data-fill-palette-color="accent"></path><path d="M94.391 68.394L82.097 52.018c-0.953-1.265-2.694-1.565-4.02-0.756 3.553-3.333 5.787-8.055 5.787-13.299 0-10.071-8.193-18.264-18.264-18.264-10.071 0-18.264 8.193-18.264 18.264 0 2.836 0.668 5.512 1.827 7.909L47.5 46.837c-0.518-1.305-1.787-2.233-3.274-2.233-0.958 0-1.826 0.386-2.461 1.007l-13.571-7.948c-0.248-1.704-1.705-3.021-3.477-3.021-1.754 0-3.2 1.289-3.472 2.966l-9.9 3.441c-0.644-0.86-1.662-1.426-2.817-1.426C6.583 39.623 5 41.205 5 43.151s1.583 3.528 3.528 3.528c1.945 0 3.528-1.583 3.528-3.528 0-0.196-0.026-0.384-0.057-0.571l9.396-3.267c0.478 1.383 1.778 2.385 3.322 2.385 1.486 0 2.754-0.926 3.273-2.229l12.903 7.557c-0.116 0.35-0.195 0.717-0.195 1.105 0 1.946 1.583 3.528 3.528 3.528 1.772 0 3.229-1.317 3.477-3.021l2.25-1.307c0.85 1.416 1.881 2.707 3.069 3.84-1.341 1.05-2.8 2.077-4.438 2.979-0.146 0.081-0.274 0.128-0.415 0.2v25.95h14.944V56.037c0.815 0.111 1.641 0.189 2.487 0.189 4.416 0 8.472-1.578 11.634-4.197-0.788 1.055-0.839 2.538-0.009 3.645L89.52 72.049c1.013 1.346 2.919 1.616 4.264 0.607C95.127 71.646 95.399 69.738 94.391 68.394zM8.528 45.019c-1.03 0-1.868-0.838-1.868-1.868s0.838-1.868 1.868-1.868c1.029 0 1.868 0.838 1.868 1.868S9.558 45.019 8.528 45.019zM24.717 40.038c-1.03 0-1.868-0.838-1.868-1.868 0-1.03 0.838-1.868 1.868-1.868s1.868 0.838 1.868 1.868C26.584 39.199 25.747 40.038 24.717 40.038zM44.226 50c-1.03 0-1.868-0.838-1.868-1.868 0-1.029 0.838-1.868 1.868-1.868s1.868 0.838 1.868 1.868C46.094 49.162 45.256 50 44.226 50zM65.601 52.905c-0.85 0-1.677-0.087-2.487-0.224v-8.534c-2.521 0.557-4.812 2.591-7.506 4.891-1.087-0.981-2.025-2.116-2.786-3.374l9.183-5.335c0.646 0.827 1.641 1.369 2.77 1.369 1.945 0 3.528-1.583 3.528-3.528s-1.583-3.528-3.528-3.528c-1.946 0-3.528 1.583-3.528 3.528 0 0.22 0.025 0.435 0.064 0.644L52.04 44.2c-0.877-1.902-1.382-4.01-1.382-6.238 0-8.24 6.703-14.943 14.942-14.943 8.24 0 14.943 6.704 14.943 14.943C80.544 46.202 73.841 52.905 65.601 52.905zM62.905 38.17c0-1.03 0.838-1.868 1.868-1.868 1.029 0 1.868 0.838 1.868 1.868 0 1.029-0.839 1.868-1.868 1.868C63.743 40.038 62.905 39.199 62.905 38.17z" fill="#000000" data-fill-palette-color="accent"></path></g></svg></g></svg></g></svg></g></svg></g></svg></g></svg></g></svg></g><defs></defs></svg><rect width="59.00725799999999" height="39.73362360534784" fill="none" stroke="none" visibility="hidden"></rect></g></svg></g></svg>