<svg xmlns="http://www.w3.org/2000/svg" version="1.1" xmlns:xlink="http://www.w3.org/1999/xlink" xmlns:svgjs="http://svgjs.dev/svgjs" width="1000" height="262" viewBox="0 0 1000 262"><g transform="matrix(1,0,0,1,-0.6060606060606233,0.435714880265607)"><svg viewBox="0 0 396 104" data-background-color="#102e44" preserveAspectRatio="xMidYMid meet" height="262" width="1000" xmlns="http://www.w3.org/2000/svg" xmlns:xlink="http://www.w3.org/1999/xlink"><g id="tight-bounds" transform="matrix(1,0,0,1,0.2400000000000091,-0.17295552499092537)"><svg viewBox="0 0 395.52 104.34591104998182" height="104.34591104998182" width="395.52"><g><svg viewBox="0 0 395.52 104.34591104998182" height="104.34591104998182" width="395.52"><g><svg viewBox="0 0 395.52 104.34591104998182" height="104.34591104998182" width="395.52"><g><svg viewBox="0 0 682.4557013251606 180.04516056338028" height="104.34591104998182" width="395.52"><g transform="matrix(1,0,0,1,286.93570132516055,0)"><svg viewBox="0 0 395.52 180.04516056338028" height="180.04516056338028" width="395.52"><g id="textblocktransform"><svg viewBox="0 0 395.52 180.04516056338028" height="180.04516056338028" width="395.52" id="textblock"><g><svg viewBox="0 0 395.52 180.04516056338028" height="180.04516056338028" width="395.52"><g transform="matrix(1,0,0,1,0,0)"><svg width="395.52" viewBox="4.05 -39.95 88.75 40.400000000000006" height="180.04516056338028" data-palette-color="#ffffff"><path d="M9.95-34.65L9.95-2.1Q9.95 0.3 7 0.3L7 0.3Q4.05 0.3 4.05-2.1L4.05-2.1 4.05-36.7Q4.05-37.85 4.7-38.78 5.35-39.7 7.2-39.7L7.2-39.7 24.2-39.7Q26-39.7 26.1-37.2L26.1-37.2Q26.2-34.65 24.2-34.65L24.2-34.65 9.95-34.65ZM22.75-20.65L22.75-20.65Q22.75-19.8 22.43-19.03 22.1-18.25 21.53-17.7 20.95-17.15 20.2-16.82 19.45-16.5 18.55-16.5L18.55-16.5Q16.85-16.5 15.65-17.7 14.45-18.9 14.45-20.65L14.45-20.65Q14.45-22.4 15.65-23.6 16.85-24.8 18.55-24.8L18.55-24.8Q19.45-24.8 20.2-24.48 20.95-24.15 21.53-23.58 22.1-23 22.43-22.25 22.75-21.5 22.75-20.65ZM55.7-1.2L44.7-34.8 33.75-1.2 33.75-1.25Q33.45-0.5 32.92-0.03 32.4 0.45 31.65 0.45L31.65 0.45Q31.25 0.45 30.87 0.38 30.5 0.3 30.1 0.2L30.1 0.2 30.15 0.2Q27.3-0.7 28.05-3L28.05-3 39.45-37.65Q39.7-38.45 40.32-39 40.95-39.55 41.8-39.65L41.8-39.65Q42.65-39.8 43.45-39.88 44.25-39.95 44.7-39.95L44.7-39.95Q45.15-39.95 45.95-39.88 46.75-39.8 47.6-39.7L47.6-39.7Q48.3-39.6 48.97-38.95 49.65-38.3 50-37.65L50-37.65Q52.8-29.05 55.67-20.33 58.55-11.6 61.35-3L61.35-3Q62.05-0.7 59.25 0.2L59.25 0.2Q58.85 0.3 58.52 0.38 58.2 0.45 57.8 0.45L57.8 0.45Q57.1 0.45 56.52-0.03 55.95-0.5 55.7-1.25L55.7-1.25 55.7-1.2ZM48.45-12L48.45-12Q48.45-10.4 47.32-9.28 46.2-8.15 44.6-8.15L44.6-8.15Q43-8.15 41.9-9.28 40.8-10.4 40.8-12L40.8-12Q40.8-13.6 41.9-14.73 43-15.85 44.6-15.85L44.6-15.85Q46.2-15.85 47.32-14.73 48.45-13.6 48.45-12ZM76.7-5L83.5-5Q85.34-5 86.09-6.05 86.84-7.1 86.84-8.4L86.84-8.4 86.84-31.3Q86.84-32.55 86.09-33.6 85.34-34.65 83.5-34.65L83.5-34.65 71.8-34.65 71.75-2.05Q71.75-0.95 70.9-0.3 70.05 0.35 68.8 0.35L68.8 0.35Q65.84 0.35 65.84-2.05L65.84-2.05 65.84-36.7Q65.84-38.5 66.77-39.1 67.7-39.7 69-39.7L69-39.7 84.75-39.7Q86.05-39.7 87.45-39.15 88.84-38.6 90.15-37.75L90.15-37.75 90.09-37.75Q91.4-36.8 92.09-35.27 92.8-33.75 92.8-31.75L92.8-31.75 92.8-8Q92.8-3.95 90.09-1.95L90.09-1.95Q88.8-1 87.42-0.48 86.05 0.05 84.75 0.05L84.75 0.05 76.34 0.05Q75.5 0.05 75.02-0.65 74.55-1.35 74.55-2.5L74.55-2.5Q74.55-5 76.7-5L76.7-5Z" opacity="1" transform="matrix(1,0,0,1,0,0)" fill="#ffffff" class="undefined-text-0" data-fill-palette-color="primary" id="text-0"></path></svg></g></svg></g></svg></g></svg></g><g transform="matrix(1,0,0,1,0,7.726401940516624)"><svg viewBox="0 0 244.43135999999998 164.59235668234703" height="164.59235668234703" width="244.43135999999998"><g><svg xmlns="http://www.w3.org/2000/svg" xmlns:xlink="http://www.w3.org/1999/xlink" version="1.1" x="0" y="0" viewBox="5 19.699 89.99976674900338 60.60300000000001" enable-background="new 0 0 100 100" xml:space="preserve" height="164.59235668234703" width="244.43135999999998" class="icon-icon-0" data-fill-palette-color="accent" id="icon-0"><g fill="#b2fcfb" data-fill-palette-color="accent"><path d="M28.038 44.495v35.807h14.943V55.364c-4.05-0.883-6.704-6.144-13.906-10.345C28.736 44.821 28.389 44.649 28.038 44.495z" fill="#ffffff" data-fill-palette-color="accent"></path><path d="M7.905 80.302h14.943V43.556c-5.295 0.136-11 2.997-14.943 5.447V80.302z" fill="#ffffff" data-fill-palette-color="accent"></path><path d="M94.391 68.394L82.097 52.018c-0.953-1.265-2.694-1.565-4.02-0.756 3.553-3.333 5.787-8.055 5.787-13.299 0-10.071-8.193-18.264-18.264-18.264-10.071 0-18.264 8.193-18.264 18.264 0 2.836 0.668 5.512 1.827 7.909L47.5 46.837c-0.518-1.305-1.787-2.233-3.274-2.233-0.958 0-1.826 0.386-2.461 1.007l-13.571-7.948c-0.248-1.704-1.705-3.021-3.477-3.021-1.754 0-3.2 1.289-3.472 2.966l-9.9 3.441c-0.644-0.86-1.662-1.426-2.817-1.426C6.583 39.623 5 41.205 5 43.151s1.583 3.528 3.528 3.528c1.945 0 3.528-1.583 3.528-3.528 0-0.196-0.026-0.384-0.057-0.571l9.396-3.267c0.478 1.383 1.778 2.385 3.322 2.385 1.486 0 2.754-0.926 3.273-2.229l12.903 7.557c-0.116 0.35-0.195 0.717-0.195 1.105 0 1.946 1.583 3.528 3.528 3.528 1.772 0 3.229-1.317 3.477-3.021l2.25-1.307c0.85 1.416 1.881 2.707 3.069 3.84-1.341 1.05-2.8 2.077-4.438 2.979-0.146 0.081-0.274 0.128-0.415 0.2v25.95h14.944V56.037c0.815 0.111 1.641 0.189 2.487 0.189 4.416 0 8.472-1.578 11.634-4.197-0.788 1.055-0.839 2.538-0.009 3.645L89.52 72.049c1.013 1.346 2.919 1.616 4.264 0.607C95.127 71.646 95.399 69.738 94.391 68.394zM8.528 45.019c-1.03 0-1.868-0.838-1.868-1.868s0.838-1.868 1.868-1.868c1.029 0 1.868 0.838 1.868 1.868S9.558 45.019 8.528 45.019zM24.717 40.038c-1.03 0-1.868-0.838-1.868-1.868 0-1.03 0.838-1.868 1.868-1.868s1.868 0.838 1.868 1.868C26.584 39.199 25.747 40.038 24.717 40.038zM44.226 50c-1.03 0-1.868-0.838-1.868-1.868 0-1.029 0.838-1.868 1.868-1.868s1.868 0.838 1.868 1.868C46.094 49.162 45.256 50 44.226 50zM65.601 52.905c-0.85 0-1.677-0.087-2.487-0.224v-8.534c-2.521 0.557-4.812 2.591-7.506 4.891-1.087-0.981-2.025-2.116-2.786-3.374l9.183-5.335c0.646 0.827 1.641 1.369 2.77 1.369 1.945 0 3.528-1.583 3.528-3.528s-1.583-3.528-3.528-3.528c-1.946 0-3.528 1.583-3.528 3.528 0 0.22 0.025 0.435 0.064 0.644L52.04 44.2c-0.877-1.902-1.382-4.01-1.382-6.238 0-8.24 6.703-14.943 14.942-14.943 8.24 0 14.943 6.704 14.943 14.943C80.544 46.202 73.841 52.905 65.601 52.905zM62.905 38.17c0-1.03 0.838-1.868 1.868-1.868 1.029 0 1.868 0.838 1.868 1.868 0 1.029-0.839 1.868-1.868 1.868C63.743 40.038 62.905 39.199 62.905 38.17z" fill="#ffffff" data-fill-palette-color="accent"></path></g></svg></g></svg></g></svg></g></svg></g></svg></g><defs></defs></svg><rect width="395.52" height="104.34591104998182" fill="none" stroke="none" visibility="hidden"></rect></g></svg></g></svg>